<svg id="visual" viewBox="0 0 960 100" width="960" height="100" xmlns="http://www.w3.org/2000/svg" xmlns:xlink="http://www.w3.org/1999/xlink" version="1.1"><path d="M0 43L26.7 43.7C53.3 44.3 106.7 45.7 160 47.7C213.3 49.7 266.7 52.3 320 54.7C373.3 57 426.7 59 480 58.7C533.3 58.3 586.7 55.7 640 53.5C693.3 51.3 746.7 49.7 800 51.2C853.3 52.7 906.7 57.3 933.3 59.7L960 62L960 0L933.3 0C906.7 0 853.3 0 800 0C746.7 0 693.3 0 640 0C586.7 0 533.3 0 480 0C426.7 0 373.3 0 320 0C266.7 0 213.3 0 160 0C106.7 0 53.3 0 26.7 0L0 0Z" fill="#ffffff"></path><path d="M0 30L26.7 30.7C53.3 31.3 106.7 32.7 160 31.3C213.3 30 266.7 26 320 24.7C373.3 23.3 426.7 24.7 480 26.8C533.3 29 586.7 32 640 33.8C693.3 35.7 746.7 36.3 800 34C853.3 31.7 906.7 26.3 933.3 23.7L960 21L960 0L933.3 0C906.7 0 853.3 0 800 0C746.7 0 693.3 0 640 0C586.7 0 533.3 0 480 0C426.7 0 373.3 0 320 0C266.7 0 213.3 0 160 0C106.7 0 53.3 0 26.7 0L0 0Z" fill="#eff1f1"></path></svg>