<svg id="visual" viewBox="0 0 960 100" width="960" height="100" xmlns="http://www.w3.org/2000/svg" xmlns:xlink="http://www.w3.org/1999/xlink" version="1.1"><path d="M0 38L26.7 38.3C53.3 38.7 106.7 39.3 160 37.8C213.3 36.3 266.7 32.7 320 34.3C373.3 36 426.7 43 480 44.3C533.3 45.7 586.7 41.3 640 43.8C693.3 46.3 746.7 55.7 800 59.5C853.3 63.3 906.7 61.7 933.3 60.8L960 60L960 0L933.3 0C906.7 0 853.3 0 800 0C746.7 0 693.3 0 640 0C586.7 0 533.3 0 480 0C426.7 0 373.3 0 320 0C266.7 0 213.3 0 160 0C106.7 0 53.3 0 26.7 0L0 0Z" fill="#ffffff"></path><path d="M0 30L26.7 27.2C53.3 24.3 106.7 18.7 160 17.3C213.3 16 266.7 19 320 22.7C373.3 26.3 426.7 30.7 480 30.7C533.3 30.7 586.7 26.3 640 24.3C693.3 22.3 746.7 22.7 800 25.7C853.3 28.7 906.7 34.3 933.3 37.2L960 40L960 0L933.3 0C906.7 0 853.3 0 800 0C746.7 0 693.3 0 640 0C586.7 0 533.3 0 480 0C426.7 0 373.3 0 320 0C266.7 0 213.3 0 160 0C106.7 0 53.3 0 26.7 0L0 0Z" fill="#eff1f1"></path></svg>