<svg id="visual" viewBox="0 0 960 100" width="960" height="100" xmlns="http://www.w3.org/2000/svg" xmlns:xlink="http://www.w3.org/1999/xlink" version="1.1"><path d="M0 60L26.7 59.7C53.3 59.3 106.7 58.7 160 60.2C213.3 61.7 266.7 65.3 320 63.7C373.3 62 426.7 55 480 53.7C533.3 52.3 586.7 56.7 640 54.2C693.3 51.7 746.7 42.3 800 38.5C853.3 34.7 906.7 36.3 933.3 37.2L960 38L960 101L933.3 101C906.7 101 853.3 101 800 101C746.7 101 693.3 101 640 101C586.7 101 533.3 101 480 101C426.7 101 373.3 101 320 101C266.7 101 213.3 101 160 101C106.7 101 53.3 101 26.7 101L0 101Z" fill="#ffffff"></path><path d="M0 68L26.7 70.8C53.3 73.7 106.7 79.3 160 80.7C213.3 82 266.7 79 320 75.3C373.3 71.7 426.7 67.3 480 67.3C533.3 67.3 586.7 71.7 640 73.7C693.3 75.7 746.7 75.3 800 72.3C853.3 69.3 906.7 63.7 933.3 60.8L960 58L960 101L933.3 101C906.7 101 853.3 101 800 101C746.7 101 693.3 101 640 101C586.7 101 533.3 101 480 101C426.7 101 373.3 101 320 101C266.7 101 213.3 101 160 101C106.7 101 53.3 101 26.7 101L0 101Z" fill="#f4f5f9"></path></svg>